<!-- Generated by IcoMoon.io -->
<svg version="1.1" xmlns="http://www.w3.org/2000/svg" width="32" height="32" viewBox="0 0 32 32">
<title>drg-book</title>
<path fill="#000" d="M28 4v26h-21c-1.7 0-3-1.3-3-3s1.3-3 3-3h19v-24h-20c-2.2 0-4 1.8-4 4v24c0 2.2 1.8 4 4 4h24v-28h-2z"></path>
<path fill="#000" d="M7 26v0c0 0 0 0 0 0-0.6 0-1 0.4-1 1s0.4 1 1 1c0 0 0 0 0 0v0h19v-2c0 0-19 0-19 0z"></path>
<path fill="#fff" d="M5.8 10h2.9c2.2 0 3.8 1.4 3.8 3.5s-1.5 3.5-3.8 3.5h-2.9v-7zM8.7 16.1c1.7 0 2.8-1.1 2.8-2.6s-1.1-2.6-2.8-2.6h-1.9v5.3h1.9z"></path>
<path fill="#fff" d="M16.8 11.6v0.9c-0.1 0-0.1 0-0.2 0-1 0-1.7 0.6-1.7 1.8v2.6h-1v-5.3h0.9v0.9c0.4-0.5 1-0.9 2-0.9z"></path>
<path fill="#fff" d="M22.8 13.5h1v2.7c-0.7 0.6-1.7 0.9-2.6 0.9-2.1 0-3.7-1.5-3.7-3.6s1.6-3.6 3.7-3.6c1.1 0 2 0.4 2.7 1.1l-0.6 0.6c-0.6-0.6-1.2-0.8-2-0.8-1.6 0-2.8 1.1-2.8 2.7 0 1.5 1.2 2.7 2.8 2.7 0.6 0 1.1-0.1 1.6-0.4v-2.3z"></path>
</svg>
