<!-- Generated by IcoMoon.io -->
<svg version="1.1" xmlns="http://www.w3.org/2000/svg" width="32" height="32" viewBox="0 0 32 32">
<title>kids-svgrepo-com</title>
<path d="M6.159 3.722c0 0-0 0-0 0 1.152 0 4.402 0.022 7.655 0.022 0.373 0 0.675-0.302 0.675-0.675s-0.302-0.675-0.675-0.675h-1.965c-0.418-0.958-1.268-1.702-2.293-1.913 0.054-0.261-0.235-0.483-0.592-0.483-0.358 0-0.645 0.222-0.592 0.482-1.377 0.283-2.438 1.529-2.562 2.961-0.006 0.072 0.018 0.143 0.067 0.196 0.087 0.095 0.185 0.083 0.282 0.083z"></path>
<path d="M29.744 20.255c-0.024-0.061-2.529-6.102-3.396-8.625-0.562-1.636-1.505-2.466-2.803-2.466h-4.2c-1.297 0-2.24 0.83-2.803 2.466-0.325 0.947-0.805 2.295-1.28 3.616l-0.484-4.151c-0.049-1.568-1.344-2.832-2.923-2.832-0.234 0-5.452 0-5.702 0-1.578 0-2.873 1.263-2.923 2.832l-1.051 9.019c-0.079 0.678 0.407 1.291 1.084 1.37 0.68 0.079 1.292-0.409 1.37-1.084 1.024-8.784 1.082-9.31 1.084-9.336l0.001 19.454c0 0.819 0.664 1.483 1.483 1.483s1.483-0.664 1.483-1.483v-10.412h0.64v10.412c0 0.819 0.664 1.483 1.483 1.483s1.483-0.664 1.483-1.483c0-20.025-0.027-7.981-0.027-19.525 0.036 0.075-0.057-0.617 1.111 9.407 0.073 0.629 0.607 1.091 1.226 1.093 0.866 0.003 1.278-0.833 1.348-1.024 0.018-0.048 1.564-4.278 2.532-7.032l-1.646 8.499c-0.038 0.197 0.014 0.401 0.142 0.557s0.318 0.246 0.519 0.246c0.261 0 0.574 0 0.925 0v7.78c0 0.803 0.651 1.455 1.455 1.455s1.455-0.651 1.455-1.455v-7.78c0.209 0 0.419 0 0.628 0v7.78c0 0.803 0.651 1.455 1.455 1.455s1.455-0.651 1.455-1.455v-7.78c0.351 0 0.664 0 0.925 0 0.201 0 0.392-0.090 0.52-0.245s0.18-0.36 0.141-0.557l-1.666-8.425c0 0 2.634 7.461 2.7 7.631 0.244 0.623 0.948 0.93 1.571 0.686s0.93-0.948 0.686-1.571z"></path>
<path d="M17.672 6.118c0.482 0 0.903-0.257 1.137-0.64 0.151 1.433 1.362 2.55 2.835 2.55s2.684-1.117 2.835-2.55c0.234 0.383 0.655 0.64 1.137 0.64 0.736 0 1.299 0.067 1.805 1.248 0.945-1.875-0.641-3.913-1.805-3.913-0.575 0-1.063 0.364-1.25 0.874-0.362-1.16-1.444-2.001-2.722-2.001s-2.361 0.842-2.722 2.001c-0.187-0.51-0.675-0.874-1.25-0.874-1.164 0-2.749 2.039-1.805 3.913 0.506-1.181 1.069-1.248 1.805-1.248z"></path>
<path d="M8.964 7.083c1.282 0 2.366-0.846 2.725-2.010h-5.45c0.359 1.164 1.443 2.011 2.725 2.011z"></path>
</svg>
