<svg xmlns="http://www.w3.org/2000/svg" viewBox="-50 375 459 212"><switch><g><path d="M176.8 544.9h-24.2V423.7h20.6l3.6 12.1c8.1-8.1 18.2-12.1 30.3-12.1h6.1V448h-6.1c-12.1 0-22.2 2-30.3 6.1v90.8zM375.2 375H273.7c-28.3 0-40.7 14.4-40.7 42.7v84.8c0 28.3 12.4 41.5 40.7 41.5h24.2c28.3 0 42.1-13.2 42.1-41.5V447h-59v26h36v29.5c0 12.1-6.9 18.5-19.1 18.5h-24.2c-12.1 0-18.7-6.4-18.7-18.5v-84.8c0-12.1 6.6-18.7 18.7-18.7H386v165H-28V399H85.9c12.1 0 17.1 6.6 17.1 18.7v84.8c0 12.1-5 15.5-17.1 15.5H41V413H17v131h68.9c28.3 0 43.1-13.2 43.1-41.5v-84.8c0-28.3-14.8-42.7-43.1-42.7H-50v212h459.1V375h-33.9z" fill="#b3adb0"/></g></switch></svg>