<svg version="1.1" id="M" xmlns="http://www.w3.org/2000/svg" x="0" y="0" viewBox="0 0 459 212.2" xml:space="preserve"><style>.st4{fill:#0c6dc7}.st5{fill:#15638e}</style><switch><g><radialGradient id="XMLID_128_" cx="192.21" cy="510.498" r="25.706" gradientUnits="userSpaceOnUse"><stop offset="0" stop-color="#15638e"/><stop offset=".321" stop-color="#1266a0"/><stop offset=".663" stop-color="#0f6ab4"/><stop offset="1" stop-color="#0c6dc7"/></radialGradient><path id="XMLID_48_" d="M189 543h-13v-65h11l2 6.5c4.3-4.3 9.8-6.5 16.3-6.5h3.3v13h-3.3c-6.5 0-11.9 1.1-16.3 3.3V543z" fill="url(#XMLID_128_)"/><radialGradient id="XMLID_129_" cx="256.831" cy="497.492" r="42.207" gradientUnits="userSpaceOnUse"><stop offset="0" stop-color="#15638e"/><stop offset=".321" stop-color="#1266a0"/><stop offset=".663" stop-color="#0f6ab4"/><stop offset="1" stop-color="#0c6dc7"/></radialGradient><path id="XMLID_46_" d="M231.2 520.3c0 6.5 3.3 9.8 9.8 9.8h13c6.5 0 9.8-3.3 9.8-9.8V504h-19.5v-13h32.5v29.3c0 15.2-7.6 22.8-22.8 22.8h-13c-15.2 0-22.8-7.6-22.8-22.8v-45.5c0-15.2 7.6-22.8 22.8-22.8h54.5v13H241c-6.5 0-9.8 3.3-9.8 9.8v45.5z" fill="url(#XMLID_129_)"/><radialGradient id="XMLID_130_" cx="188.521" cy="559.757" r="75.737" gradientUnits="userSpaceOnUse"><stop offset="0" stop-color="#15638e"/><stop offset=".321" stop-color="#1266a0"/><stop offset=".663" stop-color="#0f6ab4"/><stop offset="1" stop-color="#0c6dc7"/></radialGradient><path id="XMLID_39_" fill="url(#XMLID_130_)" d="M81.6 553.4h213.8v12.8H81.6z"/><radialGradient id="XMLID_131_" cx="122.5" cy="497.202" r="43.808" gradientUnits="userSpaceOnUse"><stop offset="0" stop-color="#15638e"/><stop offset=".321" stop-color="#1266a0"/><stop offset=".663" stop-color="#0f6ab4"/><stop offset="1" stop-color="#0c6dc7"/></radialGradient><path id="XMLID_3_" d="M140.2 451.2H81v14h59.1c6.5 0 9.8 3 9.8 9.5v45.5c0 6.5-3.3 8.9-9.8 8.9H117v-57h-14v71h37.2c15.2 0 23.8-7.8 23.8-22.9v-45.5c0-15.1-8.6-23.5-23.8-23.5z" fill="url(#XMLID_131_)"/><path id="XMLID_79_" class="st4" d="M-135.3 542.8h-9.7v-61h8.2l1.5 6.1c3.2-4.1 7.3-6.1 12.1-6.1h2.4V494h-2.4c-4.8 0-8.9 1-12.1 3v45.8z"/><path id="XMLID_77_" class="st4" d="M-103.8 513.3c0 4.8 2.4 7.3 7.3 7.3h9.7c4.8 0 7.3-2.4 7.3-7.3v-12.1H-94v-9.7h24.2v21.8c0 11.3-5.6 16.9-16.9 16.9h-9.7c-11.3 0-16.9-5.6-16.9-16.9v-33.9c0-11.3 5.6-16.9 16.9-16.9H-56v9.7h-40.5c-4.8 0-7.3 2.4-7.3 7.3v33.8z"/><path id="XMLID_69_" class="st4" d="M-215.2 538H-56v9.5h-159.2z"/><path id="XMLID_68_" class="st4" d="M-171.6 462.2H-216v10h44.4c4.8 0 7.6 2.4 7.6 7.2v33.9c0 4.8-2.8 6.9-7.6 6.9H-189v-43h-10v53h27.4c11.3 0 17.6-5.6 17.6-16.9v-33.9c0-11.3-6.3-17.2-17.6-17.2z"/><path id="XMLID_85_" class="st5" d="M-128.7 683.4h-13.1v-65.7h11.2l2 6.6c4.4-4.4 9.9-6.6 16.4-6.6h3.3v13.1h-3.3c-6.6 0-12 1.1-16.4 3.3v49.3z"/><path id="XMLID_83_" class="st5" d="M-86 660.4c0 6.6 3.3 9.9 9.9 9.9H-63c6.6 0 9.9-3.3 9.9-9.9V644h-19.7v-13.1H-40v29.6c0 15.3-7.7 23-23 23h-13.1c-15.3 0-23-7.7-23-23v-46c0-15.3 7.7-23 23-23l36.9-.4v13.1l-36.9.4c-6.6 0-9.9 3.3-9.9 9.9v45.9z"/><path id="XMLID_82_" class="st5" d="M-215.2 693.8h175.9v12.9h-175.9z"/><path id="XMLID_81_" class="st5" d="M-178 591.2h-61v13h61c6.6 0 10 3.6 10 10.2v46c0 6.6-3.4 9.8-10 9.8h-23v-59h-14v72h37c15.3 0 24-7.5 24-22.8v-46c0-15.4-8.6-23.2-24-23.2z"/><path id="XMLID_97_" class="st5" d="M536.3 527.3h-11.7v-58.7h10l1.8 5.9c3.9-3.9 8.8-5.9 14.7-5.9h2.9v11.7h-3c-5.9 0-10.8 1-14.7 2.9v44.1z"/><path id="XMLID_95_" class="st5" d="M574.5 506.8c0 5.9 2.9 8.8 8.8 8.8H595c5.9 0 8.8-2.9 8.8-8.8v-14.7h-17.6v-11.7h29.4v26.4c0 13.7-6.8 20.5-20.5 20.5h-11.7c-13.7 0-20.5-6.8-20.5-20.5v-41.1c0-13.7 6.8-20.5 20.5-20.5l33-.4v11.7l-33 .4c-5.9 0-8.8 2.9-8.8 8.8v41.1z"/><path id="XMLID_94_" class="st5" d="M459.1 536.7h157.2v11.5H459.1z"/><path id="XMLID_93_" class="st5" d="M492.3 444.2H438v13h54.3c5.9 0 9.7 2.6 9.7 8.5v41.1c0 5.9-3.8 8.4-9.7 8.4H472v-52h-13v64h33.3c13.7 0 21.7-6.7 21.7-20.4v-41.1c0-13.7-8-21.5-21.7-21.5z"/><linearGradient id="XMLID_132_" gradientUnits="userSpaceOnUse" x1="-156.558" y1="860.745" x2="-110.696" y2="814.883"><stop offset="0" stop-color="#15638e"/><stop offset="1" stop-color="#0c6dc7"/></linearGradient><path id="XMLID_91_" d="M-132.1 873h-12.2v-61.1h10.4l1.8 6.1c4.1-4.1 9.2-6.1 15.3-6.1h3.1v12.2h-3.1c-6.1 0-11.2 1-15.3 3.1V873z" fill="url(#XMLID_132_)"/><linearGradient id="XMLID_133_" gradientUnits="userSpaceOnUse" x1="-106.875" y1="859.981" x2="-33.119" y2="786.225"><stop offset="0" stop-color="#15638e"/><stop offset="1" stop-color="#0c6dc7"/></linearGradient><path id="XMLID_89_" d="M-92.4 851.6c0 6.1 3.1 9.2 9.2 9.2H-71c6.1 0 9.2-3.1 9.2-9.2v-15.3h-18.3v-12.2h30.6v27.5c0 14.3-7.1 21.4-21.4 21.4h-12.2c-14.3 0-21.4-7.1-21.4-21.4v-42.8c0-14.3 7.1-21.4 21.4-21.4H-32v12.2h-51.2c-6.1 0-9.2 3.1-9.2 9.2v42.8z" fill="url(#XMLID_133_)"/><linearGradient id="XMLID_134_" gradientUnits="userSpaceOnUse" x1="-186.513" y1="942.232" x2="-79.487" y2="835.205"><stop offset="0" stop-color="#15638e"/><stop offset="1" stop-color="#0c6dc7"/></linearGradient><path id="XMLID_88_" fill="url(#XMLID_134_)" d="M-234 882.7h202v12h-202z"/><linearGradient id="XMLID_135_" gradientUnits="userSpaceOnUse" x1="-228.273" y1="857.929" x2="-162.303" y2="791.959"><stop offset="0" stop-color="#15638e"/><stop offset="1" stop-color="#0c6dc7"/></linearGradient><path id="XMLID_87_" d="M-178 787.2h-56v12h56c6.1 0 10 3.5 10 9.6v42.8c0 6.1-3.8 8.6-10 8.6h-22v-54h-13v67h35c14.3 0 22-7.4 22-21.6v-42.8c0-14.3-7.7-21.6-22-21.6z" fill="url(#XMLID_135_)"/><path id="XMLID_62_" class="st4" d="M126.5-239.7h-5.9V-269h5l.9 2.9c2-2 4.4-2.9 7.3-2.9h1.5v5.9h-1.5c-2.9 0-5.4.5-7.3 1.5v21.9z"/><path id="XMLID_59_" class="st4" d="M145.6-250c0 2.9 1.5 4.4 4.4 4.4h5.9c2.9 0 4.4-1.5 4.4-4.4v-7.3h-8.8v-5.9h14.6v13.2c0 6.8-3.4 10.3-10.3 10.3H150c-6.8 0-10.3-3.4-10.3-10.3v-20.5c0-6.8 3.4-10.3 10.3-10.3h24.5v5.9H150c-2.9 0-4.4 1.5-4.4 4.4v20.5zm4.4-30.7h32.5v5.9H150"/><path id="XMLID_58_" class="st4" d="M75.1-235.1h99.4v5.8H75.1z"/><path id="XMLID_70_" fill="none" d="M80 809.2h234v115H80z"/><linearGradient id="XMLID_136_" gradientUnits="userSpaceOnUse" x1="67" y1="866.702" x2="327" y2="866.702"><stop offset="0" stop-color="#15638e"/><stop offset=".321" stop-color="#1266a0"/><stop offset=".663" stop-color="#0f6ab4"/><stop offset="1" stop-color="#0c6dc7"/></linearGradient><path id="XMLID_76_" d="M327 799.3v-2.1H67v138.9h260V799.3zm-247 9.9h234v115H80v-115z" fill="url(#XMLID_136_)"/><path id="XMLID_99_" class="st5" d="M658 424.2v-2H402V573.2h256v-149zm-243 10h230v127H415v-127z"/><path id="XMLID_108_" class="st5" d="M531.3 707.2h-11.7v-58.6h10l1.8 5.9c3.9-3.9 8.8-5.9 14.7-5.9h2.9v11.7h-3c-5.9 0-10.8 1-14.7 2.9v44z"/><path id="XMLID_106_" class="st5" d="M569.5 686.8c0 5.9 2.9 8.8 8.8 8.8H590c5.9 0 8.8-2.9 8.8-8.8v-14.7h-17.6v-11.7h29.4v26.4c0 13.7-6.8 20.5-20.5 20.5h-11.7c-13.7 0-20.5-6.8-20.5-20.5v-41.1c0-13.7 6.8-20.5 20.5-20.5l33-.4v11.7l-33 .4c-5.9 0-8.8 2.9-8.8 8.8v41.1z"/><path id="XMLID_105_" class="st5" d="M430.5 716.7h180.8v11.5H430.5z"/><path id="XMLID_110_" class="st5" d="M430.5 624.2H442v104h-11.5z"/><path id="XMLID_104_" class="st5" d="M487.3 624.2H433v13h54.3c5.9 0 9.7 2.6 9.7 8.5v41.1c0 5.9-3.8 8.4-9.7 8.4H467v-52h-13v64h33.3c13.7 0 21.7-6.7 21.7-20.4v-41.1c0-13.7-8-21.5-21.7-21.5z"/><path id="XMLID_56_" class="st4" d="M176.7-280.8h5.8v51.5h-5.8z"/><path id="XMLID_55_" class="st4" d="M72-280.8h5.8v51.5H72z"/><path id="XMLID_53_" class="st4" d="M104.6-280.8H72v6h32.6c2.9 0 4.4 1.4 4.4 4.3v20.5c0 2.9-1.5 4.2-4.4 4.2H94v-25.9h-6v32h16.6c6.8 0 10.4-3.3 10.4-10.2v-20.5c0-6.9-3.6-10.4-10.4-10.4z"/><linearGradient id="XMLID_137_" gradientUnits="userSpaceOnUse" x1="181.642" y1="677.659" x2="216.575" y2="677.659"><stop offset="0" stop-color="#15638e"/><stop offset=".321" stop-color="#1266a0"/><stop offset=".663" stop-color="#0f6ab4"/><stop offset="1" stop-color="#0c6dc7"/></linearGradient><path id="XMLID_72_" d="M195.6 712.6h-14v-69.9h11.9l2.1 7c4.7-4.7 10.5-7 17.5-7h3.5v14h-3.5c-7 0-12.8 1.2-17.5 3.5v52.4z" fill="url(#XMLID_137_)"/><linearGradient id="XMLID_138_" gradientUnits="userSpaceOnUse" x1="65" y1="675.702" x2="329" y2="675.702"><stop offset="0" stop-color="#15638e"/><stop offset=".321" stop-color="#1266a0"/><stop offset=".663" stop-color="#0f6ab4"/><stop offset="1" stop-color="#0c6dc7"/></linearGradient><path id="XMLID_74_" d="M310 614.2h-58.5c-16.3 0-24.5 8.7-24.5 25v48.9c0 16.3 8.2 24.1 24.5 24.1h14c16.3 0 23.5-7.8 23.5-24.1v-31.9h-34v15h21v16.9c0 7-3.5 11.1-10.5 11.1h-14c-7 0-10.5-4.1-10.5-11.1v-48.9c0-7 3.5-10 10.5-10H316v95H78v-95h65.2c7 0 9.8 3 9.8 10v48.9c0 7-2.8 9.1-9.8 9.1H118v-60h-15v75h40.2c16.3 0 24.8-7.8 24.8-24.1v-48.9c0-16.3-8.5-25-24.8-25H65v123h263.9V614.2H310z" fill="url(#XMLID_138_)"/><linearGradient id="XMLID_139_" gradientUnits="userSpaceOnUse" x1="513.556" y1="870.669" x2="548.684" y2="870.669"><stop offset="0" stop-color="#15638e"/><stop offset="1" stop-color="#0c6dc7"/></linearGradient><path id="XMLID_52_" d="M527.6 905.8h-14.1v-70.3h11.9l2.1 7c4.7-4.7 10.5-7 17.6-7h3.5v14.1h-3.5c-7 0-12.9 1.2-17.6 3.5v52.7z" fill="url(#XMLID_139_)"/><linearGradient id="XMLID_140_" gradientUnits="userSpaceOnUse" x1="396" y1="868.702" x2="662" y2="868.702"><stop offset="0" stop-color="#15638e"/><stop offset="1" stop-color="#0c6dc7"/></linearGradient><path id="XMLID_51_" d="M642.6 807.2h-58.8c-16.4 0-23.8 8.4-23.8 24.8v49.2c0 16.4 7.4 24 23.8 24h14.1c16.4 0 24.1-7.6 24.1-24v-32h-34v15h21v17c0 7-4.1 11-11.1 11h-14.1c-7 0-10.8-4-10.8-11V832c0-7 3.8-10.8 10.8-10.8H649v96H409v-96h65.9c7 0 10.1 3.8 10.1 10.8v49.2c0 7-3.1 9-10.1 9H449v-61h-14v76h39.9c16.4 0 25.1-7.6 25.1-24V832c0-16.4-8.7-24.8-25.1-24.8H396V930.3h266V807.2h-19.4z" fill="url(#XMLID_140_)"/><path id="XMLID_66_" class="st5" d="M195.9 895.4H185V841h9.2l1.6 5.4c3.6-3.6 8.2-5.4 13.6-5.4h2.7v10.9h-2.7c-5.4 0-10 .9-13.6 2.7v40.8z"/><path id="XMLID_64_" class="st5" d="M285 819.2h-45.6c-12.7 0-19.4 6.4-19.4 19.1v38.1c0 12.7 6.7 17.8 19.4 17.8h10.9c12.7 0 19.7-5.1 19.7-17.8v-24.2h-28v11h17v13.2c0 5.4-3.2 7.8-8.7 7.8h-10.9c-5.4 0-8.4-2.4-8.4-7.8v-38.1c0-5.4 3-8.1 8.4-8.1H289v73H105v-73h50.1c5.4 0 7.9 2.7 7.9 8.1v38.1c0 5.4-2.4 7.8-7.9 7.8H135v-48h-11v58h31.1c12.7 0 19.9-5.1 19.9-17.8v-38.1c0-12.7-7.2-19.1-19.9-19.1H95v-.1 95h204v-95h-14z"/><text id="XMLID_1_" transform="translate(-234.023 447.115)" font-family="AeroMaticsRegular" font-size="36">1.</text><text id="XMLID_102_" transform="translate(-247 658.605)" font-family="AeroMaticsRegular" font-size="36">2.</text><text id="XMLID_103_" transform="translate(-250.886 762.788)" font-family="AeroMaticsRegular" font-size="36">3.</text><text id="XMLID_111_" transform="translate(54.124 444.79)" font-family="AeroMaticsRegular" font-size="36">4.</text><text id="XMLID_112_" transform="translate(35.6 603.04)" font-family="AeroMaticsRegular" font-size="36">5.</text><text id="XMLID_113_" transform="translate(23.6 797.202)" font-family="AeroMaticsRegular" font-size="36">6.</text><text id="XMLID_114_" transform="translate(362.583 443.202)" font-family="AeroMaticsRegular" font-size="36">7.</text><text id="XMLID_115_" transform="translate(396 624.202)" font-family="AeroMaticsRegular" font-size="36">8.</text><text id="XMLID_116_" transform="translate(390 787.202)" font-family="AeroMaticsRegular" font-size="36">9.</text><linearGradient id="XMLID_141_" gradientUnits="userSpaceOnUse" x1="202.537" y1="109.323" x2="263.123" y2="109.323"><stop offset="0" stop-color="#15638e"/><stop offset="1" stop-color="#0c6dc7"/></linearGradient><path id="XMLID_6_" d="M226.8 169.9h-24.2V48.7h20.6l3.6 12.1c8.1-8.1 18.2-12.1 30.3-12.1h6.1V73h-6.1c-12.1 0-22.2 2-30.3 6.1v90.8z" fill="url(#XMLID_141_)"/><linearGradient id="XMLID_142_" gradientUnits="userSpaceOnUse" x1="0" y1="106.101" x2="459" y2="106.101"><stop offset="0" stop-color="#15638e"/><stop offset="1" stop-color="#0c6dc7"/></linearGradient><path id="XMLID_5_" d="M425.2.2H323.7C295.4.2 283 14.4 283 42.7v84.8c0 28.3 12.4 41.7 40.7 41.7h24.2c28.3 0 42.1-13.4 42.1-41.7V72.2h-59v26h36v29.3c0 12.1-6.9 18.7-19.1 18.7h-24.2c-12.1 0-18.7-6.6-18.7-18.7V42.7c0-12.1 6.6-18.5 18.7-18.5H436v165H22v-165h113.9c12.1 0 17.1 6.4 17.1 18.5v84.8c0 12.1-5 15.7-17.1 15.7H91v-105H67v131h68.9c28.3 0 43.1-13.4 43.1-41.7V42.7C179 14.4 164.2.2 135.9.2H0V0v212.2H459.1V.2h-33.9z" fill="url(#XMLID_142_)"/></g></switch></svg>