<svg xmlns="http://www.w3.org/2000/svg" viewBox="0 0 459 212" fill="#fd267d" xmlns:v="https://vecta.io/nano"><path d="M226.8 169.9h-24.2V48.7h20.6l3.6 12.1c8.1-8.1 18.2-12.1 30.3-12.1h6.1V73h-6.1c-12.1 0-22.2 2-30.3 6.1v90.8zM425.2 0H323.7C295.4 0 283 14.4 283 42.7v84.8c0 28.3 12.4 41.5 40.7 41.5h24.2c28.3 0 42.1-13.2 42.1-41.5V72h-59v26h36v29.5c0 12.1-6.9 18.5-19.1 18.5h-24.2c-12.1 0-18.7-6.4-18.7-18.5V42.7c0-12.1 6.6-18.7 18.7-18.7H436v165H22V24h113.9C148 24 153 30.6 153 42.7v84.8c0 12.1-5 15.5-17.1 15.5H91V38H67v131h68.9c28.3 0 43.1-13.2 43.1-41.5V42.7C179 14.4 164.2 0 135.9 0H0v212h459.1V0h-33.9z"/></svg>